<svg width="226" height="298" viewBox="0 0 226 298" fill="none" xmlns="http://www.w3.org/2000/svg">
<mask id="mask0_1191_5528" style="mask-type:alpha" maskUnits="userSpaceOnUse" x="0" y="0" width="226" height="298">
<path fill-rule="evenodd" clip-rule="evenodd" d="M73.9693 0H40.4821C28.9837 0 26.8727 1.53756 22.8491 4.46817L22.7499 4.5404C13.3233 11.405 6.24208 20.374 3.76042 24.5355C0.0695323 30.1191 0.0693359 37.7295 0.0693359 41.58V113.791V117.244V180.756V184.209V256.42C0.0693359 260.271 0.0695323 267.881 3.76042 273.464C6.24208 277.626 13.3233 286.595 22.7499 293.46L22.8491 293.532C26.8727 296.462 28.9837 298 40.4821 298H73.9693H97.615H128.454H152.1H185.587C197.086 298 199.197 296.462 203.22 293.532L203.319 293.46C212.746 286.595 219.827 277.626 222.309 273.464C226 267.881 226 260.271 226 256.42V184.209V180.756V117.244V113.791V41.58C226 37.7295 226 30.1191 222.309 24.5355C219.827 20.374 212.746 11.405 203.319 4.5404L203.22 4.46817C199.197 1.53756 197.086 0 185.587 0H152.1H128.454H97.615H73.9693Z" fill="#3C3C3C"/>
</mask>
<g mask="url(#mask0_1191_5528)">
<rect x="21" y="26" width="184" height="246" fill="black"/>
<rect x="226" width="29" height="226" transform="rotate(90 226 0)" fill="url(#paint0_linear_1191_5528)"/>
<g filter="url(#filter0_f_1191_5528)">
<ellipse cx="46.5" cy="12" rx="46.5" ry="11" fill="#D9D9D9" fill-opacity="0.15"/>
</g>
<g filter="url(#filter1_f_1191_5528)">
<ellipse cx="94" cy="6.5" rx="56" ry="3.5" fill="#D9D9D9" fill-opacity="0.3"/>
</g>
<rect x="226" y="269" width="29" height="226" transform="rotate(90 226 269)" fill="url(#paint1_linear_1191_5528)"/>
<g filter="url(#filter2_f_1191_5528)">
<ellipse cx="102.5" cy="294" rx="53.5" ry="19" fill="#D9D9D9" fill-opacity="0.14"/>
</g>
<g filter="url(#filter3_f_1191_5528)">
<ellipse cx="193" cy="283" rx="33" ry="11" transform="rotate(90 193 283)" fill="black" fill-opacity="0.22"/>
</g>
<rect x="16" width="10" height="298" fill="url(#paint2_linear_1191_5528)"/>
<g filter="url(#filter4_f_1191_5528)">
<path d="M25 287V9C23.4709 16.1109 23.0295 31.9043 23 38.9121V246.978C23 277.602 24.3333 286.419 25 287Z" fill="url(#paint3_linear_1191_5528)"/>
</g>
<g filter="url(#filter5_f_1191_5528)">
<path d="M22.4353 15.0222C19.9209 15.9365 16.1492 21.0225 14.5777 23.4513C13.3871 39.0237 11.7204 68.8828 14.5777 63.7396C18.1493 57.3106 25.5784 13.8792 22.4353 15.0222Z" fill="white" fill-opacity="0.2"/>
</g>
<rect width="10" height="298" transform="matrix(-1 0 0 1 210 0)" fill="url(#paint4_linear_1191_5528)"/>
<g filter="url(#filter6_f_1191_5528)">
<path d="M200 292V14C201.529 21.1109 201.97 36.9043 202 43.9121V251.978C202 282.602 200.667 291.419 200 292Z" fill="url(#paint5_linear_1191_5528)"/>
</g>
<g filter="url(#filter7_f_1191_5528)">
<path d="M201 16H202.629L203.479 36.7531H201V16Z" fill="url(#paint6_linear_1191_5528)" fill-opacity="0.3"/>
</g>
<rect width="8" height="298" fill="url(#paint7_linear_1191_5528)"/>
<rect width="8" height="298" transform="matrix(-1 0 0 1 226 0)" fill="url(#paint8_linear_1191_5528)"/>
<rect x="8.2" y="0.2" width="7.6" height="297.6" fill="url(#paint9_linear_1191_5528)" stroke="#1A1A1A" stroke-width="0.4"/>
<rect x="-0.2" y="0.2" width="7.6" height="297.6" transform="matrix(-1 0 0 1 217.6 0)" fill="url(#paint10_linear_1191_5528)" stroke="#1A1A1A" stroke-width="0.4"/>
</g>
<g opacity="0.6" filter="url(#filter8_d_1191_5528)">
<rect x="97" y="252" width="32.5538" height="3.66816" rx="1.83408" fill="url(#paint11_linear_1191_5528)"/>
</g>
<defs>
<filter id="filter0_f_1191_5528" x="-24" y="-23" width="141" height="70" filterUnits="userSpaceOnUse" color-interpolation-filters="sRGB">
<feFlood flood-opacity="0" result="BackgroundImageFix"/>
<feBlend mode="normal" in="SourceGraphic" in2="BackgroundImageFix" result="shape"/>
<feGaussianBlur stdDeviation="12" result="effect1_foregroundBlur_1191_5528"/>
</filter>
<filter id="filter1_f_1191_5528" x="14" y="-21" width="160" height="55" filterUnits="userSpaceOnUse" color-interpolation-filters="sRGB">
<feFlood flood-opacity="0" result="BackgroundImageFix"/>
<feBlend mode="normal" in="SourceGraphic" in2="BackgroundImageFix" result="shape"/>
<feGaussianBlur stdDeviation="12" result="effect1_foregroundBlur_1191_5528"/>
</filter>
<filter id="filter2_f_1191_5528" x="25" y="251" width="155" height="86" filterUnits="userSpaceOnUse" color-interpolation-filters="sRGB">
<feFlood flood-opacity="0" result="BackgroundImageFix"/>
<feBlend mode="normal" in="SourceGraphic" in2="BackgroundImageFix" result="shape"/>
<feGaussianBlur stdDeviation="12" result="effect1_foregroundBlur_1191_5528"/>
</filter>
<filter id="filter3_f_1191_5528" x="158" y="226" width="70" height="114" filterUnits="userSpaceOnUse" color-interpolation-filters="sRGB">
<feFlood flood-opacity="0" result="BackgroundImageFix"/>
<feBlend mode="normal" in="SourceGraphic" in2="BackgroundImageFix" result="shape"/>
<feGaussianBlur stdDeviation="12" result="effect1_foregroundBlur_1191_5528"/>
</filter>
<filter id="filter4_f_1191_5528" x="21.6035" y="7.6035" width="4.793" height="280.793" filterUnits="userSpaceOnUse" color-interpolation-filters="sRGB">
<feFlood flood-opacity="0" result="BackgroundImageFix"/>
<feBlend mode="normal" in="SourceGraphic" in2="BackgroundImageFix" result="shape"/>
<feGaussianBlur stdDeviation="0.698249" result="effect1_foregroundBlur_1191_5528"/>
</filter>
<filter id="filter5_f_1191_5528" x="9.276" y="11.276" width="17.6409" height="56.7756" filterUnits="userSpaceOnUse" color-interpolation-filters="sRGB">
<feFlood flood-opacity="0" result="BackgroundImageFix"/>
<feBlend mode="normal" in="SourceGraphic" in2="BackgroundImageFix" result="shape"/>
<feGaussianBlur stdDeviation="1.862" result="effect1_foregroundBlur_1191_5528"/>
</filter>
<filter id="filter6_f_1191_5528" x="198.604" y="12.6035" width="4.793" height="280.793" filterUnits="userSpaceOnUse" color-interpolation-filters="sRGB">
<feFlood flood-opacity="0" result="BackgroundImageFix"/>
<feBlend mode="normal" in="SourceGraphic" in2="BackgroundImageFix" result="shape"/>
<feGaussianBlur stdDeviation="0.698249" result="effect1_foregroundBlur_1191_5528"/>
</filter>
<filter id="filter7_f_1191_5528" x="200.535" y="15.5345" width="3.41049" height="21.6842" filterUnits="userSpaceOnUse" color-interpolation-filters="sRGB">
<feFlood flood-opacity="0" result="BackgroundImageFix"/>
<feBlend mode="normal" in="SourceGraphic" in2="BackgroundImageFix" result="shape"/>
<feGaussianBlur stdDeviation="0.23275" result="effect1_foregroundBlur_1191_5528"/>
</filter>
<filter id="filter8_d_1191_5528" x="95.15" y="251.075" width="36.2537" height="7.36821" filterUnits="userSpaceOnUse" color-interpolation-filters="sRGB">
<feFlood flood-opacity="0" result="BackgroundImageFix"/>
<feColorMatrix in="SourceAlpha" type="matrix" values="0 0 0 0 0 0 0 0 0 0 0 0 0 0 0 0 0 0 127 0" result="hardAlpha"/>
<feOffset dy="0.925"/>
<feGaussianBlur stdDeviation="0.925"/>
<feComposite in2="hardAlpha" operator="out"/>
<feColorMatrix type="matrix" values="0 0 0 0 0 0 0 0 0 0 0 0 0 0 0 0 0 0 0.5 0"/>
<feBlend mode="normal" in2="BackgroundImageFix" result="effect1_dropShadow_1191_5528"/>
<feBlend mode="normal" in="SourceGraphic" in2="effect1_dropShadow_1191_5528" result="shape"/>
</filter>
<linearGradient id="paint0_linear_1191_5528" x1="226" y1="113" x2="255" y2="113" gradientUnits="userSpaceOnUse">
<stop stop-color="#3D3D3D"/>
<stop offset="0.0931905" stop-color="#151515"/>
<stop offset="0.255208" stop-color="#1E1E1E"/>
<stop offset="0.395833" stop-color="#2F2F2F"/>
<stop offset="0.567708" stop-color="#2E2E2E"/>
<stop offset="0.960821" stop-color="#313131"/>
<stop offset="1" stop-color="#545454"/>
</linearGradient>
<linearGradient id="paint1_linear_1191_5528" x1="226" y1="382" x2="255" y2="382" gradientUnits="userSpaceOnUse">
<stop stop-color="#606060"/>
<stop offset="0.0347853" stop-color="#2D2D2D"/>
<stop offset="0.255208" stop-color="#2F2F2F"/>
<stop offset="0.637725" stop-color="#1E1E1E"/>
<stop offset="0.768898" stop-color="#181818"/>
<stop offset="0.904235" stop-color="#010101"/>
<stop offset="1" stop-color="#474747"/>
</linearGradient>
<linearGradient id="paint2_linear_1191_5528" x1="21" y1="0" x2="21" y2="298" gradientUnits="userSpaceOnUse">
<stop stop-color="#141414"/>
<stop offset="1" stop-color="#272727"/>
</linearGradient>
<linearGradient id="paint3_linear_1191_5528" x1="25" y1="138.63" x2="23.0001" y2="138.649" gradientUnits="userSpaceOnUse">
<stop stop-color="#434343"/>
<stop offset="0.541667" stop-color="#494949"/>
<stop offset="1" stop-color="#707070"/>
</linearGradient>
<linearGradient id="paint4_linear_1191_5528" x1="5" y1="0" x2="5" y2="298" gradientUnits="userSpaceOnUse">
<stop stop-color="#141414"/>
<stop offset="1" stop-color="#272727"/>
</linearGradient>
<linearGradient id="paint5_linear_1191_5528" x1="202" y1="50.1928" x2="202" y2="292" gradientUnits="userSpaceOnUse">
<stop stop-color="#393939" stop-opacity="0"/>
<stop offset="0.541667" stop-color="#393939"/>
<stop offset="1" stop-color="#666666"/>
</linearGradient>
<linearGradient id="paint6_linear_1191_5528" x1="202.24" y1="16" x2="202.24" y2="36.7531" gradientUnits="userSpaceOnUse">
<stop stop-color="white" stop-opacity="0"/>
<stop offset="0.510417" stop-color="white"/>
<stop offset="1" stop-color="white" stop-opacity="0"/>
</linearGradient>
<linearGradient id="paint7_linear_1191_5528" x1="4" y1="19.1751" x2="4" y2="280.56" gradientUnits="userSpaceOnUse">
<stop stop-color="#3E3E3E"/>
<stop offset="0.147575" stop-color="#1B1B1B"/>
<stop offset="0.78125" stop-color="#0B0B0B"/>
<stop offset="1" stop-color="#292929"/>
</linearGradient>
<linearGradient id="paint8_linear_1191_5528" x1="4" y1="19.1751" x2="4" y2="280.56" gradientUnits="userSpaceOnUse">
<stop stop-color="#3E3E3E"/>
<stop offset="0.147575" stop-color="#1B1B1B"/>
<stop offset="0.78125" stop-color="#0B0B0B"/>
<stop offset="1" stop-color="#292929"/>
</linearGradient>
<linearGradient id="paint9_linear_1191_5528" x1="12" y1="0" x2="12" y2="298" gradientUnits="userSpaceOnUse">
<stop stop-color="#737373"/>
<stop offset="0.125" stop-color="#393939"/>
<stop offset="0.869792" stop-color="#393939"/>
<stop offset="1" stop-color="#515151"/>
</linearGradient>
<linearGradient id="paint10_linear_1191_5528" x1="4" y1="0" x2="4" y2="298" gradientUnits="userSpaceOnUse">
<stop stop-color="#737373"/>
<stop offset="0.125" stop-color="#393939"/>
<stop offset="0.869792" stop-color="#393939"/>
<stop offset="1" stop-color="#515151"/>
</linearGradient>
<linearGradient id="paint11_linear_1191_5528" x1="113.277" y1="252" x2="113.277" y2="255.668" gradientUnits="userSpaceOnUse">
<stop stop-color="#565656"/>
<stop offset="0.489583" stop-color="#1D1D1D"/>
<stop offset="0.864583" stop-color="#1A1A1A"/>
<stop offset="1" stop-color="#5B5B5B"/>
</linearGradient>
</defs>
</svg>
