<svg width="28" height="28" viewBox="0 0 28 28" fill="none" xmlns="http://www.w3.org/2000/svg">
<g id="Group 3128">
<path id="Union" fill-rule="evenodd" clip-rule="evenodd" d="M0.152344 0H18.6138H18.6139C23.7118 3.91705e-05 27.8445 4.13278 27.8445 9.23076C27.8445 14.3044 23.7512 18.422 18.6867 18.4612H27.8445V27.692H18.6137C13.5329 27.692 9.41087 23.5871 9.3831 18.5128V27.692H0.152344V18.4612H9.31022C6.7948 18.4223 4.76765 16.3711 4.76765 13.8464C4.76765 11.2974 6.83403 9.23104 9.38303 9.23104C11.932 9.23104 13.9984 11.2974 13.9984 13.8464C13.9984 16.3711 11.9713 18.4223 9.45584 18.4612H18.6138V9.23076H0.152344V0Z" fill="white"/>
</g>
</svg>
